<svg xmlns="http://www.w3.org/2000/svg" viewBox="0 0 64 64" width="64" height="64">
  <defs>
    <linearGradient id="gold" x1="0" y1="0" x2="0" y2="1">
      <stop offset="0" stop-color="#e7c65a"/>
      <stop offset="1" stop-color="#b8862f"/>
    </linearGradient>
  </defs>
  <rect x="29" y="30" width="6" height="28" rx="1.5" fill="url(#gold)" stroke="#6b4a16" stroke-width="1"/>
  <circle cx="32" cy="9" r="3" fill="url(#gold)" stroke="#6b4a16" stroke-width="1"/>
  <path d="M32 12 C30 18 31 22 32 24 C33 22 34 18 32 12 Z" fill="url(#gold)" stroke="#6b4a16" stroke-width="0.8"/>
  <path d="M32 23 C20 20 10 24 5 31 C13 30 18 31 22 34 C25 30 29 27 32 27 C35 27 39 30 42 34 C46 31 51 30 59 31 C54 24 44 20 32 23 Z" fill="url(#gold)" stroke="#6b4a16" stroke-width="1"/>
  <path d="M32 27 C30 32 31 36 32 39 C33 36 34 32 32 27 Z" fill="url(#gold)" stroke="#6b4a16" stroke-width="0.8"/>
  <rect x="22" y="40" width="20" height="11" rx="2" fill="#7a1f22" stroke="#4a1213" stroke-width="1"/>
  <text x="32" y="48.5" font-family="Georgia, 'Times New Roman', serif" font-size="6.5" font-weight="bold" fill="#e7c65a" text-anchor="middle">SPQR</text>
</svg>
