<svg xmlns="http://www.w3.org/2000/svg" viewBox="0 0 96 96">
  <defs>
    <linearGradient id="paper" x1="0" x2="1" y1="0" y2="1">
      <stop offset="0" stop-color="#fff2bd"/>
      <stop offset="1" stop-color="#d8a94c"/>
    </linearGradient>
  </defs>
  <path d="M22 18h46c8 0 14 6 14 14 0 7-5 12-12 13v27c0 4-3 7-7 7H21c-7 0-12-5-12-12s5-12 12-12h3V28c-7-1-12-6-12-13 0-8 6-14 14-14 6 0 11 4 13 9z" fill="#7b4b1e" opacity=".28"/>
  <path d="M28 16h42c8 0 14 6 14 14s-6 14-14 14h-4v31H22V44h6z" fill="url(#paper)" stroke="#8b5a21" stroke-width="4" stroke-linejoin="round"/>
  <path d="M28 16c-8 0-14 6-14 14s6 14 14 14h42c-8 0-14-6-14-14s6-14 14-14z" fill="#f7d980" stroke="#8b5a21" stroke-width="4" stroke-linejoin="round"/>
  <path d="M22 55c-7 0-12 5-12 12s5 12 12 12h44c-7 0-12-5-12-12s5-12 12-12z" fill="#efc86b" stroke="#8b5a21" stroke-width="4" stroke-linejoin="round"/>
  <path d="M35 34h26M31 49h24M31 61h19" fill="none" stroke="#8b5a21" stroke-width="5" stroke-linecap="round" opacity=".72"/>
</svg>
